# Blender v2.82 (sub 7) OBJ File: ''
# www.blender.org
mtllib platform_display.mtl
o Cube.001
v 0.605000 0.000000 -0.750000
v 0.605000 -0.000000 1.750000
v 0.395000 -0.000000 1.750000
v 0.395000 0.000000 -0.750001
v 0.650000 1.000000 -0.749999
v 0.350000 1.000000 -0.750000
v 0.350000 1.000000 1.750000
v 0.650000 1.000000 1.750001
v 0.650000 0.700000 -0.750000
v 0.650000 0.700000 1.750000
v 0.350000 0.700000 1.750000
v 0.350000 0.700000 -0.750000
vt 0.269914 0.553586
vt 0.269913 0.999948
vt 0.232418 0.999948
vt 0.232419 0.553586
vt 0.000052 0.553586
vt 0.053615 0.553586
vt 0.053615 0.999947
vt 0.000052 0.999947
vt 0.107180 0.500017
vt 0.053613 0.500021
vt 0.053574 0.053624
vt 0.107142 0.053619
vt 0.053570 0.000056
vt 0.107138 0.000052
vt 0.107179 0.999947
vt 0.107180 0.553586
vt 0.232174 0.508053
vt 0.232174 0.545551
vt 0.232429 0.500007
vt 0.232391 0.053609
vt 0.232131 0.045575
vt 0.232128 0.008078
vn 0.0000 -1.0000 -0.0000
vn -0.0000 1.0000 0.0000
vn 1.0000 -0.0000 0.0000
vn -0.0000 -0.0000 1.0000
vn -1.0000 -0.0000 0.0000
vn 0.0000 0.0000 -1.0000
vn 0.9979 -0.0642 -0.0000
vn -0.9979 -0.0642 -0.0000
usemtl Material.001
# s off
f 1/1/1 2/2/1 3/3/1 4/4/1
f 5/5/2 6/6/2 7/7/2 8/8/2
f 9/9/3 5/10/3 8/11/3 10/12/3
f 10/12/4 8/11/4 7/13/4 11/14/4
f 11/15/5 7/7/5 6/6/5 12/16/5
f 9/9/6 1/17/6 4/18/6 12/16/6
f 1/19/7 9/9/7 10/12/7 2/20/7
f 2/21/4 10/12/4 11/14/4 3/22/4
f 3/3/8 11/15/8 12/16/8 4/4/8
f 5/10/6 9/9/6 12/16/6 6/6/6
