# Blender v2.82 (sub 7) OBJ File: ''
# www.blender.org
mtllib ticket_machine.mtl
o Cube.003
v -0.000000 0.000000 0.000000
v 0.500000 0.000000 0.000000
v 0.500000 0.000000 1.000000
v -0.000000 0.000000 1.000000
v 0.000001 1.000000 0.000000
v 0.000000 1.000000 1.000000
v 0.099995 1.000000 1.000000
v 0.100005 1.000000 0.000001
v 0.000000 0.745000 0.000000
v 0.100000 0.745000 0.000000
v 0.100000 0.745000 1.000000
v 0.000000 0.745000 1.000000
v -0.000000 0.150000 0.000000
v -0.000000 0.150000 1.000000
v 0.500000 0.150000 0.000000
v 0.500000 0.150000 1.000000
vt 0.796323 0.965134
vt 0.555157 0.965134
vt 0.555157 0.482803
vt 0.796323 0.482803
vt 0.482493 0.999843
vt 0.000162 0.999843
vt 0.000162 0.951612
vt 0.482493 0.951607
vt 0.723654 0.123151
vt 0.723654 0.000157
vt 0.771890 0.000157
vt 0.771887 0.123152
vt 0.482492 0.828613
vt 0.000161 0.828618
vt 0.193089 0.123152
vt 0.193091 0.000158
vt 0.241322 0.000157
vt 0.241322 0.123152
vt 0.723654 0.410138
vt 0.723654 0.482488
vt 0.241323 0.482489
vt 0.241323 0.410139
vt 0.964820 0.410138
vt 0.964820 0.482488
vt 0.482807 0.965134
vt 0.482808 0.482803
vt 0.000157 0.482488
vt 0.000157 0.410139
vt 0.482488 0.482803
vt 0.000157 0.482808
vn -0.0000 -1.0000 0.0000
vn 0.0000 1.0000 0.0000
vn 0.0000 0.0000 -1.0000
vn 1.0000 -0.0000 0.0000
vn 0.0000 0.0000 1.0000
vn -1.0000 0.0000 0.0000
vn 0.8299 0.5579 0.0000
usemtl Material.002
# s off
f 1/1/1 2/2/1 3/3/1 4/4/1
f 5/5/2 6/6/2 7/7/2 8/8/2
f 9/9/3 5/10/3 8/11/3 10/12/3
f 10/13/4 8/8/4 7/7/4 11/14/4
f 11/15/5 7/16/5 6/17/5 12/18/5
f 13/19/6 1/20/6 4/21/6 14/22/6
f 1/20/3 13/19/3 15/23/3 2/24/3
f 2/2/4 15/25/4 16/26/4 3/3/4
f 3/27/5 16/28/5 14/22/5 4/21/5
f 9/9/6 13/19/6 14/22/6 12/18/6
f 13/19/3 9/9/3 10/12/3 15/23/3
f 15/29/7 10/13/7 11/14/7 16/30/7
f 16/28/5 11/15/5 12/18/5 14/22/5
f 5/10/6 9/9/6 12/18/6 6/17/6
