# Blender v2.82 (sub 7) OBJ File: ''
# www.blender.org
mtllib ticket_gate.mtl
o door_left_door_left_cube
v 0.450000 0.748850 1.000000
v 0.450000 0.748850 0.600000
v 0.450000 0.398850 0.600000
v 0.450000 0.398850 1.000000
v 0.550000 0.748850 0.600000
v 0.550000 0.398850 0.600000
v 0.550000 0.748850 1.000000
v 0.550000 0.398850 1.000000
vt 0.912951 0.940806
vt 0.792969 0.940806
vt 0.792969 0.835822
vt 0.912951 0.835822
vt 0.762973 0.940807
vt 0.762973 0.835822
vt 0.642991 0.940807
vt 0.642991 0.835822
vt 0.942947 0.940806
vt 0.942946 0.835822
vt 0.792969 0.805827
vt 0.912951 0.805827
vt 0.912951 0.970802
vt 0.792969 0.970802
vn -1.0000 0.0000 0.0000
vn 0.0000 0.0000 -1.0000
vn 1.0000 0.0000 0.0000
vn 0.0000 0.0000 1.0000
vn 0.0000 -1.0000 -0.0000
vn 0.0000 1.0000 0.0000
g door_left
usemtl door
# s off
f 1/1/1 2/2/1 3/3/1 4/4/1
f 2/2/2 5/5/2 6/6/2 3/3/2
f 5/5/3 7/7/3 8/8/3 6/6/3
f 7/9/4 1/1/4 4/4/4 8/10/4
f 4/4/5 3/3/5 6/11/5 8/12/5
f 7/13/6 5/14/6 2/2/6 1/1/6
o machine_machine_cube
v 0.283333 0.006351 -0.000000
v 0.283333 0.006351 0.200000
v -0.150000 0.006351 0.200000
v -0.150000 0.006351 -0.000000
v -0.150000 0.806351 0.000000
v -0.150001 0.806350 0.200000
v -0.150001 0.806350 0.200000
v -0.150000 0.806351 0.000000
v 1.150000 0.006351 -0.000000
v 1.150001 0.806351 0.000000
v 1.149999 0.806350 0.200000
v 1.150000 0.006351 0.200000
v 0.283333 0.806350 0.200000
v 0.283333 0.806351 0.000000
v 0.283333 0.861351 0.000000
v 0.283333 0.861351 0.200000
v 0.716667 0.806350 0.200000
v 1.149999 0.806350 0.200000
v 0.716667 0.861351 0.200000
v 1.150001 0.806351 0.000000
v 0.716667 0.006351 0.200000
v 0.716667 0.006351 -0.000000
v 0.716667 0.806351 0.000000
v 0.716667 0.861351 0.000000
v 0.450000 0.748850 0.600000
v 0.450000 0.748850 0.200000
v 0.450000 0.398851 0.200000
v 0.450000 0.398850 0.600000
v 0.550000 0.748850 0.200000
v 0.550000 0.398851 0.200000
v 0.550000 0.748850 0.600000
v 0.550000 0.398850 0.600000
vt 0.905213 0.412698
vt 1.000000 0.412698
vt 1.000000 0.619048
vt 0.905213 0.619047
vt 0.000000 0.000000
vt 0.000000 0.000000
vt 0.000000 0.000000
vt 0.000000 0.000000
vt 0.094787 0.619048
vt 0.094787 1.000000
vt 0.000000 1.000000
vt 0.000000 0.619048
vt 0.405213 0.206349
vt 0.026066 0.206349
vt 0.026066 0.000000
vt 0.405213 0.000000
vt 0.094787 1.000000
vt 0.094787 0.619048
vt 0.189573 0.619048
vt 0.189573 1.000000
vt 0.431280 0.412698
vt 0.810426 0.412698
vt 0.810426 0.619048
vt 0.431280 0.619048
vt 0.905213 0.412698
vt 0.905213 0.619047
vt 0.810426 0.619048
vt 0.810426 0.412698
vt 0.026066 0.412698
vt 0.026066 0.619048
vt 0.026066 0.619048
vt 0.000000 0.412698
vt 0.431280 0.619048
vt 0.405213 0.412698
vt 0.000000 0.000000
vt 0.000000 0.000000
vt 0.000000 0.000000
vt 0.000000 0.000000
vt 0.905213 0.000000
vt 1.000000 0.000000
vt 1.000000 0.206349
vt 0.905213 0.206349
vt 0.405213 0.619048
vt 0.405213 0.412698
vt 0.431280 0.000000
vt 0.810426 0.000000
vt 0.810426 0.206349
vt 0.431280 0.206349
vt 0.905213 0.000000
vt 0.905213 0.206349
vt 0.810426 0.206349
vt 0.810426 0.000000
vt 0.000000 0.206349
vt 0.026066 0.000000
vt 0.405213 0.206349
vt 0.431280 0.000000
vt 0.537951 0.929088
vt 0.417969 0.929088
vt 0.417969 0.824104
vt 0.537951 0.824104
vt 0.387973 0.929088
vt 0.387973 0.824104
vt 0.267991 0.929088
vt 0.267991 0.824104
vt 0.567947 0.929088
vt 0.567947 0.824104
vt 0.417969 0.794108
vt 0.537951 0.794108
vt 0.537951 0.959083
vt 0.417969 0.959084
vn 0.0000 -1.0000 0.0000
vn 0.0000 0.0000 1.0000
vn 1.0000 -0.0000 0.0000
vn -1.0000 -0.0000 -0.0000
vn 0.0000 0.0000 -1.0000
vn -0.1259 0.9920 -0.0000
vn 0.1259 0.9920 0.0000
vn 0.0000 1.0000 0.0000
g body
usemtl Material.001
# s off
f 9/15/7 10/16/7 11/17/7 12/18/7
f 13/19/8 14/20/8 15/21/8 16/22/8
f 17/23/9 18/24/9 19/25/9 20/26/9
f 10/27/8 21/28/8 14/29/8 11/30/8
f 11/31/10 14/32/10 13/33/10 12/34/10
f 22/35/11 9/36/11 12/37/11 13/38/11
f 23/39/12 16/40/12 15/41/12 24/42/12
f 25/43/8 19/44/8 26/45/8 27/46/8
f 22/35/11 13/38/11 16/47/11 23/48/11
f 19/49/8 18/50/8 28/51/8 26/52/8
f 17/53/7 20/54/7 29/55/7 30/56/7
f 30/56/7 29/55/7 10/16/7 9/15/7
f 20/57/8 19/44/8 25/43/8 29/58/8
f 29/58/8 25/43/8 21/28/8 10/27/8
f 18/59/11 17/60/11 30/61/11 31/62/11
f 31/62/11 30/61/11 9/36/11 22/35/11
f 28/63/13 32/64/13 27/65/13 26/66/13
f 32/64/14 23/39/14 24/42/14 27/65/14
f 14/29/8 21/28/8 24/67/8 15/68/8
f 21/28/8 25/43/8 27/46/8 24/67/8
f 18/59/11 31/62/11 32/69/11 28/70/11
f 31/62/11 22/35/11 23/48/11 32/69/11
g door_right
usemtl door
f 33/71/10 34/72/10 35/73/10 36/74/10
f 34/72/11 37/75/11 38/76/11 35/73/11
f 37/75/9 39/77/9 40/78/9 38/76/9
f 39/79/8 33/71/8 36/74/8 40/80/8
f 36/74/7 35/73/7 38/81/7 40/82/7
f 39/83/14 37/84/14 34/72/14 33/71/14
